# xmcd
#
# Track frame offsets:
#	150
#	9830
#	20595
#	31980
#	45731
#	56864
#	68504
#	80010
#	90687
#	101348
#	110484
#	124205
#	135376
#	148557
#	160580
#	170332
#
# Disc length: 2411 seconds
#
# Revision: 0
# Processed by: cddbd v1.5.1PL2 Copyright (c) Steve Scherf et al.
# Submitted via: dBpowerAMP V4.0
#
DISCID=c8096910
DTITLE=Pat Boone - Love Letters In The Sand
DYEAR=1900
DGENRE=Country
TTITLE0=Love Letters In The Sand
TTITLE1=I Love You More And More
TTITLE2=I Almost Lost My Mind
TTITLE3=Friendly Persuasion
TTITLE4=April Love
TTITLE5=Poetry In Motion
TTITLE6=Speedy Gonzales
TTITLE7=Aint That A Shame
TTITLE8=Tutti Fruitti
TTITLE9=A Wonderful Time Up There
TTITLE10=I Believe In Music
TTITLE11=Moody River
TTITLE12=Jambalaya
TTITLE13=You Lay So Easy On My Mind
TTITLE14=Mr Blue
TTITLE15=Where There's A Heartache
EXTD=
EXTT0=
EXTT1=
EXTT2=
EXTT3=
EXTT4=
EXTT5=
EXTT6=
EXTT7=
EXTT8=
EXTT9=
EXTT10=
EXTT11=
EXTT12=
EXTT13=
EXTT14=
EXTT15=
PLAYORDER=
